<?xml version="1.0" standalone="no"?>
<!DOCTYPE svg PUBLIC "-//W3C//DTD SVG 20010904//EN"
 "http://www.w3.org/TR/2001/REC-SVG-20010904/DTD/svg10.dtd">
<svg version="1.0" xmlns="http://www.w3.org/2000/svg"
 width="700.000000pt" height="700.000000pt" viewBox="0 0 700.000000 700.000000"
 preserveAspectRatio="xMidYMid meet">
<metadata>
Created by potrace 1.14, written by Peter Selinger 2001-2017
</metadata>
<g transform="translate(0.000000,700.000000) scale(0.100000,-0.100000)"
fill="#000000" stroke="none">
<path d="M3795 6841 c-50 -15 -61 -30 -100 -143 -15 -40 -30 -82 -35 -93 -17
-37 -282 -758 -300 -817 -10 -31 20 -101 48 -114 23 -10 782 -13 810 -3 26 10
62 65 62 96 0 18 -23 87 -75 223 -7 19 -22 60 -33 90 -11 30 -43 116 -71 190
-27 74 -82 223 -121 330 -40 107 -80 203 -89 213 -21 21 -69 35 -96 28z"/>
<path d="M1583 5914 c-27 -27 -31 -37 -28 -71 2 -21 15 -61 28 -89 14 -27 36
-74 50 -104 13 -30 39 -86 57 -125 18 -38 73 -158 122 -265 49 -107 106 -231
126 -275 81 -175 94 -190 166 -181 36 4 62 27 313 279 253 252 275 277 280
314 7 56 -17 88 -91 123 -34 15 -95 44 -136 63 -41 19 -97 45 -125 57 -27 12
-101 47 -164 76 -62 30 -115 54 -117 54 -3 0 -41 17 -87 39 -225 106 -308 141
-334 139 -16 -1 -42 -16 -60 -34z"/>
<path d="M5870 5906 c-52 -23 -117 -53 -145 -65 -54 -25 -126 -59 -298 -140
-60 -28 -110 -51 -112 -51 -2 0 -42 -18 -89 -40 -47 -22 -123 -57 -169 -79
-85 -39 -128 -78 -122 -109 2 -9 4 -26 4 -38 1 -13 96 -116 269 -289 147 -147
276 -274 287 -281 26 -19 71 -18 105 3 23 13 56 76 176 337 80 177 166 362
189 411 108 229 119 258 116 302 -1 20 -42 72 -59 74 -4 0 -18 2 -32 5 -15 2
-62 -13 -120 -40z"/>
<path d="M3670 5352 c-150 -12 -388 -74 -518 -133 -34 -16 -64 -29 -67 -29 -8
0 -200 -113 -228 -134 -257 -195 -421 -387 -542 -635 -121 -248 -170 -461
-170 -749 0 -105 -2 -122 -15 -118 -102 32 -163 46 -219 52 -36 3 -68 8 -70
10 -3 2 -5 104 -6 227 0 122 -4 231 -8 242 -11 30 -57 59 -91 58 -17 -1 -130
-38 -251 -83 -308 -115 -757 -281 -775 -287 -23 -7 -52 -52 -55 -84 -1 -15 6
-42 16 -59 20 -32 29 -36 144 -76 39 -14 79 -29 90 -34 11 -5 85 -32 165 -61
80 -29 149 -56 154 -60 5 -4 -9 -25 -30 -46 -123 -120 -216 -291 -247 -456 -8
-43 -18 -81 -21 -84 -3 -4 -21 -8 -38 -9 -72 -7 -106 -14 -173 -34 -38 -12
-80 -24 -92 -27 -13 -3 -23 -9 -23 -14 0 -5 -7 -9 -15 -9 -41 0 -195 -107
-286 -199 -195 -197 -290 -446 -276 -726 26 -509 435 -903 945 -910 l123 -2
54 -92 c30 -50 61 -98 69 -107 9 -8 16 -20 16 -25 0 -5 48 -58 108 -117 244
-245 546 -378 877 -386 303 -8 570 80 839 277 7 6 38 -8 81 -34 384 -235 851
-199 1197 90 121 102 241 272 294 419 24 65 30 73 48 67 66 -19 181 -33 252
-30 340 16 631 247 718 571 l11 41 65 -30 c36 -16 99 -46 140 -65 105 -49 132
-54 170 -31 38 24 61 72 50 108 -4 14 -27 67 -50 116 -23 50 -51 110 -62 135
-150 329 -252 547 -260 558 -6 6 -8 12 -5 12 14 0 -84 180 -103 190 -60 32
-103 16 -186 -71 -107 -113 -92 -107 -177 -65 -40 20 -109 45 -152 56 -43 11
-79 21 -81 23 -1 1 25 31 57 67 214 232 365 553 414 875 5 28 9 59 11 70 5 30
5 305 0 347 -62 518 -325 950 -751 1231 -149 98 -402 208 -530 230 -17 3 -53
10 -80 16 -110 21 -335 33 -455 23z"/>
<path d="M5862 4134 c-64 -26 -63 -22 -63 -448 -1 -349 1 -388 17 -415 18 -30
52 -51 84 -51 17 0 186 60 530 188 74 28 215 80 312 116 201 74 213 80 229
118 23 55 -1 107 -61 136 -22 10 -299 114 -435 162 -27 10 -156 57 -285 105
-281 104 -288 106 -328 89z"/>
</g>
</svg>
